<svg width="1260" height="60" viewBox="0 0 1260 60" fill="none" xmlns="http://www.w3.org/2000/svg">
<path d="M0 0H60V60H0V0Z" fill="black"/>
<rect x="60" width="60" height="60" fill="#0C5FA8"/>
<rect x="120" width="60" height="60" fill="#137FC4"/>
<rect x="180" width="60" height="60" fill="#1984C4"/>
<rect x="240" width="60" height="60" fill="#4688F1"/>
<rect x="300" width="60" height="60" fill="#1BA6EC"/>
<rect x="360" width="60" height="60" fill="#1BA9DE"/>
<rect x="420" width="60" height="60" fill="#3AA757"/>
<rect x="480" width="60" height="60" fill="#5AB84F"/>
<rect x="540" width="60" height="60" fill="#81B922"/>
<rect x="600" width="60" height="60" fill="#CA0813"/>
<rect x="660" width="60" height="60" fill="#E11E3C"/>
<rect x="720" width="60" height="60" fill="#E4272D"/>
<rect x="780" width="60" height="60" fill="#EB2036"/>
<rect x="840" width="60" height="60" fill="#E8453C"/>
<rect x="900" width="60" height="60" fill="#F0512E"/>
<rect x="960" width="60" height="60" fill="#F69732"/>
<rect x="1020" width="60" height="60" fill="#FEB82C"/>
<rect x="1080" width="60" height="60" fill="#FABB2D"/>
<rect x="1140" width="60" height="60" fill="#FEC139"/>
<rect x="1200" width="60" height="60" fill="white"/>
</svg>
